<svg width="1200" height="800" viewBox="0 0 1200 800" fill="none" xmlns="http://www.w3.org/2000/svg">
<path d="M212.111 698.411H199.153V624.608C199.153 618.973 199.717 611.649 200.281 603.2H199.717C198.59 608.269 197.464 611.649 196.337 613.903L159.153 697.848H152.957L115.774 615.03C114.647 612.779 113.521 608.832 112.394 603.763H111.831C112.394 608.27 112.394 615.03 112.394 625.171V698.411H100V589.116H116.9L150.702 665.734C153.519 671.368 154.647 675.877 155.772 678.693H156.336C159.153 671.932 160.843 667.429 161.406 665.171L195.773 589.114H212.111V698.411ZM249.296 591.933C249.296 594.187 248.73 596.44 247.041 597.566C245.351 599.256 243.662 599.818 241.407 599.818C239.153 599.818 236.9 599.256 235.773 597.566C234.084 595.877 233.52 594.187 233.52 591.369C233.52 589.116 234.084 587.424 235.773 585.736C237.463 584.044 239.153 583.482 241.407 583.482C243.662 583.482 245.914 584.044 247.041 585.736C248.73 587.989 249.296 589.68 249.296 591.933ZM247.603 698.411H235.209V620.102H247.603V698.411ZM321.407 695.031C315.21 698.977 308.448 700.664 300 700.664C292.676 700.664 286.479 698.977 280.844 695.597C275.211 692.216 270.702 687.709 267.322 681.51C263.942 675.313 262.816 668.553 262.816 661.23C262.816 648.271 266.759 638.132 274.082 630.244C281.408 622.358 291.548 618.412 303.941 618.412C310.701 618.412 316.9 619.541 321.97 622.356V635.314C316.336 631.37 310.139 629.118 303.379 629.118C295.492 629.118 288.732 631.933 283.659 637.568C278.589 643.201 276.336 651.089 276.336 660.103C276.336 669.117 278.587 676.444 283.659 681.511C288.729 686.582 294.928 689.399 302.814 689.399C309.574 689.399 316.336 687.146 321.97 682.637V695.031H321.407ZM376.618 633.061C374.366 631.371 370.984 630.808 367.04 630.808C361.408 630.808 356.9 633.624 353.519 638.693C350.14 643.764 348.449 650.524 348.449 658.974V698.977H336.054V620.102H348.449V636.441H349.012C350.702 630.809 353.52 626.862 356.9 623.482C360.279 620.102 364.786 618.974 369.293 618.974C372.676 618.974 374.929 619.539 376.618 620.102V633.061ZM454.929 658.974C454.929 671.369 451.549 681.51 444.226 688.834C436.901 696.158 427.887 700.101 416.057 700.101C404.226 700.101 395.212 696.156 388.449 688.834C381.691 681.508 378.309 671.933 378.309 659.539C378.309 646.581 381.691 636.44 389.012 629.116C396.336 621.791 405.911 617.848 418.308 617.848C430.138 617.848 439.152 621.229 445.35 628.554C452.112 636.439 454.929 646.58 454.929 658.974ZM442.534 659.538C442.534 649.96 440.281 642.074 435.774 637.001C431.267 631.931 425.071 629.114 417.182 629.114C409.297 629.114 402.536 631.931 398.029 637.001C393.521 642.637 391.268 649.96 391.268 659.538C391.268 669.114 393.521 676.439 398.591 681.509C403.1 686.581 409.858 689.398 417.747 689.398C425.634 689.398 432.394 686.581 436.339 681.509C440.281 676.44 442.534 669.114 442.534 659.538ZM512.956 677.566C512.956 684.328 510.138 689.961 505.071 693.904C500.001 698.413 492.676 700.102 484.226 700.102C476.9 700.102 470.142 698.413 465.07 695.594V682.073C471.269 687.141 478.029 689.398 485.35 689.398C495.492 689.398 499.999 686.016 499.999 678.693C499.999 675.877 498.872 673.06 497.182 671.368C495.492 669.68 490.986 666.861 484.226 664.044C477.466 661.227 472.393 657.847 469.577 654.465C466.759 651.085 465.069 646.58 465.069 640.942C465.069 634.746 467.887 629.112 472.956 624.606C478.024 620.097 484.787 617.842 492.674 617.842C498.871 617.842 504.504 618.97 509.574 621.789V634.182C504.504 630.237 498.307 628.549 492.109 628.549C488.167 628.549 484.786 629.673 481.97 631.366C479.717 633.619 478.026 635.872 478.026 639.251C478.026 642.634 479.152 645.449 480.842 647.138C482.531 648.827 487.04 651.082 492.674 653.899C499.999 657.279 505.069 660.096 508.449 664.041C511.268 667.988 512.956 672.496 512.956 677.566ZM598.028 658.974C598.028 671.369 594.647 681.51 587.323 688.834C579.999 696.158 570.984 700.101 559.154 700.101C547.326 700.101 538.311 696.156 531.55 688.834C524.79 681.508 521.408 671.933 521.408 659.539C521.408 646.581 524.789 636.44 532.111 629.116C539.436 621.791 549.011 617.848 561.407 617.848C573.237 617.848 582.251 621.229 588.449 628.554C594.646 636.439 598.028 646.58 598.028 658.974ZM585.069 659.538C585.069 649.96 582.816 642.074 578.309 637.001C573.801 631.931 567.606 629.114 559.718 629.114C551.83 629.114 545.071 631.931 540.563 637.001C536.057 642.637 533.802 649.96 533.802 659.538C533.802 669.114 536.057 676.439 541.124 681.509C545.633 686.581 552.393 689.398 560.281 689.398C568.169 689.398 574.929 686.581 578.872 681.509C583.379 676.44 585.069 669.114 585.069 659.538ZM649.294 593.622C647.04 592.494 644.226 591.369 640.844 591.369C631.83 591.369 627.884 597.003 627.884 607.707V620.102H646.478V630.808H627.884V698.411H614.929V630.808H601.406V620.102H614.929V607.707C614.929 599.821 617.181 593.623 621.689 588.552C626.759 583.482 632.957 580.667 640.28 580.667C644.224 580.667 647.04 581.23 649.294 581.793V593.622Z" fill="#303035"/>
<path d="M691.548 697.848C688.731 699.536 684.787 700.101 679.718 700.101C666.196 700.101 659.436 692.214 659.436 677.003V630.808H645.914V620.101H659.436V600.947L671.83 597.003V620.1H691.549V630.806H671.83V674.749C671.83 679.819 672.959 683.762 674.649 686.016C676.338 688.269 679.157 689.397 683.66 689.397C687.041 689.397 689.294 688.834 691.548 687.143V697.848ZM822.816 698.411H808.732L797.466 667.988H750.704L740 698.411H725.917L767.043 589.116H780.566L822.816 698.411ZM792.957 656.158L775.491 609.396C774.929 608.268 774.363 606.016 773.803 602.071H773.238C772.674 605.451 772.108 607.704 771.55 609.396L754.65 656.158H792.957ZM893.238 623.481L846.478 687.708H892.11V698.411H827.888V694.468L874.083 630.804H832.394V620.099H892.674V623.479H893.238V623.481ZM968.167 698.411H955.774V686.017H955.208C950.141 695.596 942.25 700.101 930.984 700.101C912.393 700.101 902.817 688.834 902.817 666.861V620.099H915.211V665.17C915.211 681.508 921.407 689.959 934.367 689.959C940.567 689.959 945.633 687.706 949.574 683.199C953.517 678.691 955.208 673.056 955.208 665.733V620.099H967.608V698.409L968.167 698.411ZM1030.14 633.061C1027.88 631.371 1024.51 630.808 1020.56 630.808C1014.92 630.808 1010.42 633.624 1007.04 638.693C1003.66 643.764 1001.97 650.524 1001.97 658.974V698.977H989.574V620.101H1001.97V636.441H1002.53C1004.22 630.808 1007.04 626.862 1010.42 623.482C1013.8 620.102 1018.31 618.974 1022.82 618.974C1026.19 618.974 1028.45 619.539 1030.14 620.101V633.061ZM1100 662.354H1044.79C1044.79 671.368 1047.04 678.129 1051.54 682.634C1056.06 687.142 1062.24 689.397 1070.14 689.397C1079.16 689.397 1087.04 686.58 1094.37 680.947V692.778C1087.61 697.848 1078.59 700.101 1067.32 700.101C1056.06 700.101 1047.61 696.721 1041.41 689.398C1035.21 682.073 1031.83 672.497 1031.83 659.539C1031.83 651.653 1033.52 644.891 1036.34 638.131C1039.72 631.932 1043.67 626.862 1049.3 623.482C1054.93 620.102 1061.12 618.412 1067.89 618.412C1078.03 618.412 1085.91 621.794 1091.54 628.557C1097.18 635.317 1100 644.331 1100 656.161V662.354ZM1087.04 651.651C1087.04 644.327 1085.34 638.691 1081.98 634.75C1078.59 630.808 1074.08 628.554 1067.88 628.554C1062.26 628.554 1057.18 630.808 1053.24 634.75C1049.3 638.693 1046.48 644.328 1045.34 651.088H1087.04V651.651Z" fill="#303035"/>
<mask id="mask0_5_13" style="mask-type:luminance" maskUnits="userSpaceOnUse" x="370" y="50" width="460" height="460">
<path d="M370 509.532H830V50H370V509.532Z" fill="white"/>
</mask>
<g mask="url(#mask0_5_13)">
<path d="M534.949 94.5252H650.639L530.543 452.124C528.01 459.658 520.98 464.733 513.068 464.733H423.033C417.1 464.733 411.531 461.862 408.07 457.02C404.612 452.178 403.684 445.957 405.58 440.309L517.471 107.135C520.001 99.5974 527.033 94.5212 534.949 94.5212V94.5252Z" fill="url(#paint0_linear_5_13)"/>
<path d="M703.063 334.379H519.608C516.116 334.375 512.98 336.516 511.699 339.781C510.419 343.044 511.255 346.762 513.81 349.153L631.693 459.727C635.126 462.945 639.645 464.733 644.339 464.733H748.219L703.063 334.379Z" fill="#0078D4"/>
<path d="M534.949 94.5253C526.939 94.4942 519.84 99.703 517.43 107.381L405.718 440.004C403.694 445.677 404.546 451.983 408.003 456.905C411.46 461.827 417.087 464.75 423.081 464.733H515.44C522.443 463.475 528.231 458.529 530.59 451.784L552.869 385.803L632.445 460.392C635.779 463.164 639.962 464.698 644.29 464.733H747.782L702.392 334.377L570.073 334.41L651.056 94.5253H534.949Z" fill="url(#paint1_linear_5_13)"/>
<path d="M682.713 107.117C680.187 99.5907 673.164 94.5253 665.262 94.5253H536.328C544.23 94.5253 551.252 99.592 553.779 107.117L665.674 440.304C667.573 445.954 666.646 452.177 663.185 457.02C659.726 461.865 654.156 464.737 648.222 464.737H777.161C783.092 464.737 788.661 461.862 792.12 457.019C795.58 452.175 796.505 445.953 794.608 440.304L682.713 107.117Z" fill="url(#paint2_linear_5_13)"/>
</g>
<defs>
<linearGradient id="paint0_linear_5_13" x1="14913.2" y1="2838.33" x2="3481.83" y2="36442.6" gradientUnits="userSpaceOnUse">
<stop stop-color="#114A8B"/>
<stop offset="1" stop-color="#0669BC"/>
</linearGradient>
<linearGradient id="paint1_linear_5_13" x1="20896.8" y1="19461.2" x2="18445.3" y2="20285.9" gradientUnits="userSpaceOnUse">
<stop stop-opacity="0.3"/>
<stop offset="0.071" stop-opacity="0.2"/>
<stop offset="0.321" stop-opacity="0.1"/>
<stop offset="0.623" stop-opacity="0.05"/>
<stop offset="1" stop-opacity="0"/>
</linearGradient>
<linearGradient id="paint2_linear_5_13" x1="10200.8" y1="1797.51" x2="22674.9" y2="34866.6" gradientUnits="userSpaceOnUse">
<stop stop-color="#3CCBF4"/>
<stop offset="1" stop-color="#2892DF"/>
</linearGradient>
</defs>
</svg>
