<svg width="1200" height="800" viewBox="0 0 1200 800" fill="none" xmlns="http://www.w3.org/2000/svg">
<path d="M600 513.446V426.103C692.451 426.103 764.216 334.417 728.717 237.113C715.693 201.358 686.833 172.498 650.823 159.474C553.518 124.23 461.833 195.74 461.833 288.191H374.745C374.745 140.831 517.253 25.9041 671.765 74.1733C739.188 95.3706 793.076 149.003 814.018 216.426C862.287 370.938 747.361 513.446 600 513.446Z" fill="#0080FF"/>
<path fill-rule="evenodd" clip-rule="evenodd" d="M513.167 339.525H600.255V426.613H513.167V339.525Z" fill="#0080FF"/>
<path fill-rule="evenodd" clip-rule="evenodd" d="M446.509 493.271V426.613H513.167V493.271H446.509Z" fill="#0080FF"/>
<path fill-rule="evenodd" clip-rule="evenodd" d="M446.509 426.613H390.579V370.683H446.509V426.613Z" fill="#0080FF"/>
<path d="M227.638 601.812C216.402 593.895 202.1 590.065 185.755 590.065H150V703.713H186.01C202.355 703.713 216.657 699.627 227.894 691.199C234.024 686.857 238.876 680.728 242.451 673.066C245.772 665.405 247.56 656.21 247.56 646.251C247.56 636.29 245.772 627.352 242.451 619.689C238.876 612.028 234.024 605.899 227.638 601.812ZM170.942 609.219H182.18C194.694 609.219 204.909 611.773 212.827 616.625C221.509 621.988 225.851 631.948 225.851 646.251C225.851 661.063 221.509 671.534 212.827 677.153C205.42 682.005 195.205 684.559 182.435 684.559H170.942V609.219Z" fill="#0080FF"/>
<path d="M272.332 588.531C268.757 588.531 265.948 589.809 263.394 592.108C261.095 594.406 259.818 597.215 259.818 600.79C259.818 604.366 261.095 607.176 263.394 609.73C265.693 612.028 268.757 613.305 272.332 613.305C275.652 613.305 278.717 612.028 281.272 609.73C283.57 607.431 284.847 604.366 284.847 600.79C284.847 597.215 283.57 594.406 281.272 592.108C278.717 589.809 275.652 588.531 272.332 588.531Z" fill="#0080FF"/>
<path d="M262.116 623.521H282.293V703.713H262.116V623.521Z" fill="#0080FF"/>
<path d="M355.59 630.161C349.461 624.798 342.82 621.477 335.415 621.477C324.177 621.477 314.984 625.309 307.832 632.97C300.681 640.377 296.851 650.081 296.851 661.83C296.851 673.066 300.426 682.771 307.576 690.433C314.728 697.84 324.177 701.67 335.159 701.67C342.82 701.67 349.717 699.627 355.08 695.286V697.073C355.08 703.713 353.292 708.821 349.717 712.397C346.14 715.972 341.288 717.76 335.159 717.76C325.965 717.76 320.091 714.185 312.939 704.479L299.149 717.76L299.404 718.271C302.469 722.357 306.81 726.443 312.939 730.274C318.814 734.105 326.475 736.148 335.415 736.148C347.417 736.148 357.123 732.573 364.273 725.166C371.425 717.76 375 708.055 375 696.052V623.266H355.08V630.161H355.59ZM350.228 677.664C346.651 681.75 342.054 683.537 336.436 683.537C330.561 683.537 326.22 681.494 322.645 677.664C319.069 673.577 317.537 668.469 317.537 662.085C317.537 655.444 319.325 650.336 322.645 646.25C325.965 642.164 330.817 640.377 336.436 640.377C342.31 640.377 346.651 642.42 350.228 646.25C353.803 650.336 355.59 655.699 355.59 662.085C355.59 668.469 353.803 673.577 350.228 677.664Z" fill="#0080FF"/>
<path d="M392.622 623.521H412.798V703.713H392.622V623.521Z" fill="#0080FF"/>
<path d="M402.838 588.531C399.262 588.531 396.453 589.809 393.899 592.108C391.601 594.406 390.324 597.215 390.324 600.79C390.324 604.366 391.601 607.176 393.899 609.73C396.197 612.028 399.262 613.305 402.838 613.305C406.158 613.305 409.222 612.028 411.776 609.73C414.075 607.431 415.352 604.366 415.352 600.79C415.352 597.215 414.075 594.406 411.776 592.108C409.222 589.809 406.413 588.531 402.838 588.531Z" fill="#0080FF"/>
<path d="M456.981 601.812H437.061V623.521H425.568V641.909H437.061V675.109C437.061 685.58 439.104 692.988 443.19 697.329C447.276 701.67 454.683 703.713 464.898 703.713C468.217 703.713 471.539 703.713 474.603 703.458H475.624V685.07L468.728 685.325C463.876 685.325 460.812 684.559 459.279 682.771C457.747 680.984 456.981 677.408 456.981 672.044V641.654H475.88V623.266H456.981V601.812Z" fill="#0080FF"/>
<path d="M570.374 589.809H590.55V703.713H570.374V589.809Z" fill="#0080FF"/>
<path d="M794.353 675.11C790.777 679.196 786.947 682.771 784.138 684.559C781.327 686.347 777.752 687.368 773.666 687.368C767.793 687.368 762.939 685.325 759.109 680.728C755.278 676.387 753.235 670.512 753.235 663.873C753.235 656.976 755.278 651.358 759.109 647.017C762.939 642.675 767.793 640.377 773.666 640.377C780.051 640.377 786.947 644.463 792.82 651.358L806.101 638.588C797.417 627.352 786.436 621.988 773.156 621.988C762.173 621.988 752.469 626.075 744.551 633.991C736.635 641.909 732.804 651.869 732.804 663.873C732.804 675.876 736.89 685.836 744.551 693.754C752.469 701.67 761.918 705.756 773.156 705.756C787.713 705.756 799.46 699.372 807.633 687.879L794.353 675.11Z" fill="#0080FF"/>
<path d="M877.355 634.757C874.546 630.671 870.716 627.607 865.862 625.309C861.01 623.009 855.392 621.732 849.262 621.732C838.025 621.732 828.831 625.819 821.935 633.991C815.295 642.164 811.719 652.124 811.719 664.128C811.719 676.387 815.55 686.347 822.702 694.009C830.107 701.67 839.813 705.501 851.817 705.501C865.351 705.501 876.589 699.883 885.017 689.156L885.527 688.645L872.248 675.876C870.971 677.408 869.182 678.941 867.65 680.473C865.607 682.261 863.819 683.793 861.776 684.814C858.712 686.347 855.392 687.113 851.561 687.113C845.942 687.113 841.345 685.58 837.77 682.261C834.45 679.196 832.406 675.109 831.895 670.001H885.272L885.527 662.596C885.527 657.487 884.761 652.379 883.484 647.783C882.207 643.186 880.164 638.843 877.355 634.757ZM833.172 653.656C834.193 649.826 835.982 646.506 838.536 644.208C841.345 641.398 844.92 640.12 849.006 640.12C853.86 640.12 857.69 641.398 860.244 644.208C862.542 646.761 864.075 649.826 864.33 653.656H833.172Z" fill="#0080FF"/>
<path d="M954.738 629.65C948.609 624.543 940.182 621.732 929.71 621.732C923.071 621.732 916.685 623.266 911.067 626.075C905.704 628.628 900.595 633.225 897.276 638.844L897.531 639.099L910.556 651.358C915.919 642.931 921.794 639.865 929.71 639.865C934.052 639.865 937.373 640.886 940.182 643.186C942.736 645.484 944.268 648.294 944.268 651.869V655.699C939.16 654.167 934.307 653.401 929.455 653.401C919.494 653.401 911.322 655.699 905.193 660.297C899.063 664.894 895.999 671.789 895.999 680.473C895.999 688.134 898.552 694.009 903.916 698.606C909.279 702.947 915.664 705.245 923.326 705.245C930.987 705.245 938.139 702.181 944.779 696.818V703.458H964.699V651.869C963.933 642.42 960.868 634.758 954.738 629.65ZM918.984 673.066C921.283 671.534 924.603 670.768 928.689 670.768C933.541 670.768 938.65 671.789 944.013 673.577V681.494C939.671 685.58 933.796 687.623 926.646 687.623C923.071 687.623 920.517 686.857 918.473 685.325C916.685 683.793 915.664 682.005 915.664 679.451C915.664 676.642 916.685 674.598 918.984 673.066Z" fill="#0080FF"/>
<path d="M1041.57 631.182C1035.95 624.798 1028.04 621.732 1018.08 621.732C1010.16 621.732 1003.52 624.032 998.666 628.628V623.776H979.001V703.713H999.177V659.531C999.177 653.401 1000.71 648.549 1003.52 645.229C1006.33 641.909 1010.16 640.12 1015.52 640.12C1020.12 640.12 1023.44 641.654 1025.99 644.718C1028.55 647.783 1029.82 652.124 1029.82 657.232V703.713H1050V657.232C1050 646.25 1047.19 637.311 1041.57 631.182Z" fill="#0080FF"/>
<path d="M545.091 629.65C538.961 624.543 530.533 621.732 520.062 621.732C513.422 621.732 507.038 623.266 501.419 626.075C496.056 628.628 490.948 633.225 487.627 638.844L487.884 639.099L500.908 651.358C506.272 642.931 512.145 639.865 520.062 639.865C524.404 639.865 527.724 640.886 530.534 643.186C533.087 645.484 534.619 648.294 534.619 651.869V655.699C529.512 654.167 524.66 653.401 519.807 653.401C509.847 653.401 501.674 655.699 495.545 660.297C489.416 664.894 486.35 671.789 486.35 680.473C486.35 688.134 488.905 694.009 494.268 698.606C499.631 702.947 506.016 705.245 513.678 705.245C521.339 705.245 528.491 702.181 535.13 696.818V703.458H555.051V651.869C554.284 642.42 551.22 634.758 545.091 629.65ZM509.336 673.066C511.635 671.534 514.955 670.768 519.041 670.768C523.894 670.768 529.001 671.789 534.364 673.577V681.494C530.023 685.58 524.149 687.623 516.997 687.623C513.422 687.623 510.868 686.857 508.825 685.325C507.038 683.793 506.016 682.005 506.016 679.451C506.016 676.642 507.038 674.598 509.336 673.066Z" fill="#0080FF"/>
<path d="M663.848 705.501C631.413 705.501 605.107 679.196 605.107 646.761C605.107 614.326 631.413 588.02 663.848 588.02C696.282 588.02 722.588 614.326 722.588 646.761C722.588 679.196 696.282 705.501 663.848 705.501ZM663.848 608.708C642.905 608.708 625.794 625.819 625.794 646.761C625.794 667.703 642.905 684.814 663.848 684.814C684.79 684.814 701.901 667.703 701.901 646.761C701.901 625.819 684.79 608.708 663.848 608.708Z" fill="#0080FF"/>
</svg>
