<svg width="1200" height="800" viewBox="0 0 1200 800" fill="none" xmlns="http://www.w3.org/2000/svg">
<path d="M580.401 648.812L619.932 632.414C618.815 629.628 616.75 627.368 613.734 625.637C610.718 623.908 607.312 623.043 603.516 623.043C597.821 623.043 592.488 625.386 587.518 630.07C582.549 634.757 580.176 641.005 580.401 648.812ZM605.025 694.328C592.516 694.328 582.076 690.089 573.702 681.61C565.326 673.134 561.138 662.647 561.138 650.15C561.138 637.214 565.186 626.615 573.282 618.358C581.378 610.105 591.23 605.975 602.846 605.975C608.206 605.975 613.174 606.952 617.755 608.903C622.333 610.855 626.13 613.368 629.145 616.434C632.161 619.502 634.561 622.485 636.347 625.386C638.133 628.288 639.585 631.188 640.703 634.086L642.714 639.107L583.582 663.538C588.16 672.465 595.309 676.924 605.025 676.924C613.958 676.924 621.215 672.855 626.799 664.708L641.874 674.749C638.525 679.768 633.778 684.288 627.638 688.304C621.494 692.319 613.958 694.328 605.025 694.328ZM551.758 691.648H532.328V561.797H551.758V691.648ZM478.223 676.924C484.924 676.924 490.535 674.389 495.059 669.31C499.581 664.236 501.841 657.907 501.841 650.318C501.841 642.622 499.581 636.208 495.059 631.074C490.535 625.945 484.924 623.378 478.223 623.378C471.412 623.378 465.604 625.945 460.805 631.074C456.001 636.208 453.602 642.622 453.602 650.318C453.602 657.907 456.001 664.236 460.805 669.31C465.604 674.389 471.412 676.924 478.223 676.924ZM476.882 733.985C467.057 733.985 458.794 731.363 452.094 726.122C445.394 720.876 440.589 714.797 437.687 707.881L454.606 700.854C456.391 705.092 459.184 708.773 462.98 711.897C466.775 715.018 471.412 716.584 476.882 716.584C484.255 716.584 490.033 714.35 494.221 709.889C498.407 705.427 500.501 699.012 500.501 690.646V684.288H499.832C494.358 690.981 486.599 694.328 476.548 694.328C465.269 694.328 455.385 690.033 446.9 681.442C438.412 672.855 434.17 662.478 434.17 650.318C434.17 638.048 438.412 627.59 446.9 618.941C455.385 610.3 465.269 605.975 476.548 605.975C481.575 605.975 486.122 606.924 490.201 608.818C494.274 610.719 497.487 613.06 499.832 615.848H500.501V608.652H518.927V687.969C518.927 703.362 514.991 714.881 507.118 722.524C499.246 730.164 489.167 733.985 476.882 733.985ZM364.154 669.31C369.066 674.389 374.928 676.924 381.742 676.924C388.55 676.924 394.415 674.389 399.33 669.31C404.243 664.236 406.699 657.848 406.699 650.15C406.699 642.344 404.27 635.927 399.413 630.908C394.555 625.886 388.665 623.378 381.742 623.378C374.816 623.378 368.926 625.886 364.068 630.908C359.213 635.927 356.783 642.344 356.783 650.15C356.783 657.848 359.238 664.236 364.154 669.31ZM413.233 681.693C404.632 690.118 394.137 694.328 381.742 694.328C369.346 694.328 358.848 690.118 350.251 681.693C341.65 673.272 337.353 662.757 337.353 650.15C337.353 637.546 341.65 627.033 350.251 618.608C358.848 610.185 369.346 605.975 381.742 605.975C394.137 605.975 404.632 610.185 413.233 618.608C421.829 627.033 426.131 637.546 426.131 650.15C426.131 662.757 421.829 673.272 413.233 681.693ZM267.337 669.31C272.25 674.389 278.112 676.924 284.925 676.924C291.734 676.924 297.597 674.389 302.511 669.31C307.425 664.236 309.882 657.848 309.882 650.15C309.882 642.344 307.454 635.927 302.597 630.908C297.738 625.886 291.847 623.378 284.925 623.378C277.998 623.378 272.11 625.886 267.251 630.908C262.394 635.927 259.968 642.344 259.968 650.15C259.968 657.848 262.421 664.236 267.337 669.31ZM316.416 681.693C307.815 690.118 297.319 694.328 284.925 694.328C272.529 694.328 262.032 690.118 253.432 681.693C244.833 673.272 240.536 662.757 240.536 650.15C240.536 637.546 244.833 627.033 253.432 618.608C262.032 610.185 272.529 605.975 284.925 605.975C297.319 605.975 307.815 610.185 316.416 618.608C325.013 627.033 329.314 637.546 329.314 650.15C329.314 662.757 325.013 673.272 316.416 681.693ZM169.681 694.328C150.696 694.328 134.339 687.608 120.602 674.163C106.868 660.723 100 644.574 100 625.72C100 606.867 106.868 590.721 120.602 577.276C134.339 563.835 150.696 557.113 169.681 557.113C187.883 557.113 203.573 563.416 216.75 576.021L203.516 589.241C194.025 580.319 182.747 575.854 169.681 575.854C155.947 575.854 144.305 580.708 134.757 590.412C125.209 600.118 120.436 611.889 120.436 625.72C120.436 639.554 125.209 651.323 134.757 661.027C144.305 670.733 155.947 675.585 169.681 675.585C183.639 675.585 195.197 671.013 204.354 661.864C209.827 656.399 213.232 648.536 214.574 638.27H169.681V619.53H232.83C233.5 622.873 233.835 626.781 233.835 631.243C233.835 649.649 228.418 664.264 217.588 675.085C205.303 687.913 189.335 694.328 169.681 694.328Z" fill="#5F6368"/>
<path d="M744.723 694.328C727.077 694.328 712.281 688.361 700.334 676.423C688.384 664.487 682.409 649.595 682.409 631.743C682.409 613.897 688.384 599.003 700.334 587.066C712.281 575.129 727.077 569.162 744.723 569.162C762.812 569.162 777.494 575.689 788.776 588.74L778.055 599.114C769.903 588.963 758.793 583.888 744.723 583.888C731.656 583.888 720.628 588.295 711.64 597.107C702.65 605.919 698.157 617.466 698.157 631.743C698.157 646.024 702.65 657.57 711.64 666.382C720.628 675.196 731.656 679.602 744.723 679.602C759.128 679.602 771.41 673.803 781.573 662.199L792.293 672.907C786.82 679.492 779.953 684.705 771.691 688.553C763.424 692.403 754.438 694.328 744.723 694.328Z" fill="#5F6368"/>
<path d="M821.436 691.648H806.025V571.839H821.436V691.648Z" fill="#5F6368"/>
<path d="M858.037 672.156C863.34 677.568 869.622 680.271 876.882 680.271C884.138 680.271 890.419 677.568 895.726 672.156C901.028 666.745 903.683 659.58 903.683 650.653C903.683 641.73 901.028 634.563 895.726 629.15C890.419 623.742 884.138 621.035 876.882 621.035C869.622 621.035 863.34 623.742 858.037 629.15C852.732 634.563 850.081 641.73 850.081 650.653C850.081 659.58 852.732 666.745 858.037 672.156ZM846.562 619.445C854.491 611.136 864.595 606.979 876.882 606.979C889.164 606.979 899.27 611.136 907.199 619.445C915.127 627.757 919.094 638.162 919.094 650.653C919.094 663.148 915.127 673.551 907.199 681.862C899.27 690.173 889.164 694.328 876.882 694.328C864.595 694.328 854.491 690.173 846.562 681.862C838.634 673.551 834.672 663.148 834.672 650.653C834.672 638.162 838.634 627.757 846.562 619.445Z" fill="#5F6368"/>
<path d="M1004.36 691.65H989.615V680.271H988.94C986.598 684.178 983.023 687.496 978.223 690.227C973.423 692.959 968.341 694.328 962.981 694.328C952.706 694.328 944.915 691.205 939.615 684.957C934.306 678.71 931.656 670.343 931.656 659.857V609.656H947.065V657.347C947.065 672.63 953.824 680.271 967.332 680.271C973.699 680.271 978.89 677.706 982.915 672.574C986.932 667.442 988.94 661.529 988.94 654.835V609.656H1004.36V691.65Z" fill="#5F6368"/>
<path d="M1059.14 680.272C1066.38 680.272 1072.55 677.594 1077.64 672.239C1082.71 666.886 1085.26 659.691 1085.26 650.653C1085.26 641.617 1082.71 634.422 1077.64 629.065C1072.55 623.713 1066.38 621.035 1059.14 621.035C1051.98 621.035 1045.84 623.742 1040.7 629.15C1035.56 634.563 1033 641.73 1033 650.653C1033 659.58 1035.56 666.745 1040.7 672.156C1045.84 677.568 1051.98 680.272 1059.14 680.272ZM1056.61 694.328C1046.01 694.328 1036.85 690.143 1029.14 681.777C1021.44 673.411 1017.59 663.036 1017.59 650.653C1017.59 638.27 1021.44 627.895 1029.14 619.528C1036.85 611.161 1046.01 606.979 1056.61 606.979C1062.86 606.979 1068.49 608.319 1073.44 610.994C1078.41 613.673 1082.14 617.019 1084.59 621.035H1085.26L1084.59 609.656V571.839H1100V691.65H1085.26V680.272H1084.59C1082.14 684.287 1078.41 687.634 1073.44 690.311C1068.49 692.989 1062.86 694.328 1056.61 694.328Z" fill="#5F6368"/>
<mask id="mask0_3_56" style="mask-type:luminance" maskUnits="userSpaceOnUse" x="411" y="67" width="378" height="377">
<path d="M411.666 443.153H788.202V67H411.666V443.153Z" fill="white"/>
</mask>
<g mask="url(#mask0_3_56)">
<path d="M649.176 186.261L660.734 186.479L692.137 155.108L693.659 141.824C668.707 119.651 635.877 106.144 599.934 106.144C534.854 106.144 479.947 150.368 463.667 210.305C467.103 207.932 474.416 209.699 474.416 209.699L537.177 199.399C537.177 199.399 540.424 194.068 542.028 194.396C556.384 178.7 577.026 168.835 599.934 168.835C618.571 168.835 635.703 175.375 649.176 186.261Z" fill="#EA4335"/>
<path d="M736.224 210.385C728.939 183.507 713.891 159.792 693.629 141.799L649.145 186.237C666.958 200.616 678.379 222.598 678.379 247.203V255.039C700.006 255.039 717.601 272.615 717.601 294.221C717.601 315.828 700.006 333.404 678.37 333.404H599.934L592.083 341.281V388.301L599.934 396.097H678.379C734.61 396.097 780.357 350.395 780.357 294.221C780.357 259.494 762.86 228.785 736.224 210.385Z" fill="#4285F4"/>
<path d="M521.486 396.096H599.87V333.404H521.496C515.732 333.404 510.272 332.123 505.336 329.883L494.031 333.336L462.612 364.722L459.86 375.314C476.991 388.34 498.345 396.094 521.486 396.096Z" fill="#34A853"/>
<path d="M521.489 192.347C465.259 192.347 419.51 238.048 419.51 294.222C419.51 327.297 435.38 356.728 459.903 375.353L505.388 329.911C491.777 323.758 482.267 310.092 482.267 294.222C482.267 272.615 499.862 255.038 521.489 255.038C537.376 255.038 551.057 264.539 557.216 278.138L602.701 232.698C584.061 208.201 554.597 192.347 521.489 192.347Z" fill="#FBBC05"/>
</g>
</svg>
