<svg width="1200" height="800" viewBox="0 0 1200 800" fill="none" xmlns="http://www.w3.org/2000/svg">
<path d="M1068.4 416.374C1077.68 414.771 1086.43 410.91 1093.87 405.131C1097.26 401.58 1099.86 397.347 1101.48 392.714C1103.11 388.081 1103.74 383.154 1103.31 378.261C1103.34 370.206 1101.12 362.302 1096.9 355.438C1093.84 350.214 1089.52 345.838 1084.34 342.707C1079.15 339.575 1073.27 337.788 1067.22 337.506H1061.09L1046.76 337H981.889C977.954 337 976.268 338.63 976.268 342.621V456.286C976.268 460.221 977.898 461.907 981.889 461.907H998.753C1002.69 461.907 1004.37 460.277 1004.37 456.286V418.623H1025.01C1029.54 418.86 1033.85 420.668 1037.2 423.738L1069.92 456.623C1072.9 459.673 1076.91 461.515 1081.16 461.795H1106.29C1110.23 461.795 1111.18 459.49 1108.43 456.679L1068.4 416.374ZM1064.13 392.202H1004.26V363.533H1064.13C1067.07 363.894 1069.76 365.328 1071.7 367.559C1073.65 369.791 1074.69 372.662 1074.64 375.619V380.06C1074.69 383.023 1073.65 385.901 1071.71 388.142C1069.77 390.383 1067.07 391.829 1064.13 392.202Z" fill="#D50C2D"/>
<path d="M950.072 435.487H857.151V412.046H931.297C935.232 412.046 936.918 410.415 936.918 406.424V392.764C936.918 388.829 935.288 387.143 931.297 387.143H857.094V363.758H950.072C954.007 363.758 955.694 362.128 955.694 358.136V342.621C955.694 338.686 954.063 337 950.072 337H834.159C830.224 337 828.538 338.63 828.538 342.621V456.398C828.538 460.333 830.168 462.02 834.159 462.02H950.072C954.007 462.02 955.694 460.389 955.694 456.398V441.052C955.694 437.117 953.838 435.487 950.072 435.487Z" fill="#D50C2D"/>
<path d="M808.02 378.036C808.142 370.082 805.934 362.265 801.668 355.551C798.583 350.197 794.213 345.698 788.952 342.459C783.691 339.22 777.705 337.343 771.537 337H686.317C682.326 337 680.695 338.63 680.695 342.621V456.286C680.695 460.221 682.326 461.907 686.317 461.907H704.642C708.577 461.907 710.264 460.333 710.264 456.286V363.589H759.62C770.132 363.589 780.362 370.56 780.362 381.072V456.398C780.362 460.333 781.993 462.02 785.984 462.02H802.567C806.558 462.02 808.188 460.389 808.188 456.398L808.02 378.036Z" fill="#D50C2D"/>
<path d="M654.781 434.756H574.676L654.949 364.208C656.56 362.975 657.893 361.416 658.861 359.634C659.83 357.852 660.412 355.886 660.571 353.864V342.621C660.571 338.686 658.884 337 654.949 337H538.755C534.82 337 533.134 338.63 533.134 342.621V358.193C533.134 362.128 534.764 363.814 538.755 363.814H613.239L538.531 433.913C536.933 435.158 535.609 436.719 534.641 438.498C533.674 440.278 533.084 442.238 532.909 444.256V456.454C532.909 460.389 534.539 462.076 538.531 462.076H654.612C658.547 462.076 660.234 460.446 660.234 456.454V440.321C660.346 436.386 658.716 434.756 654.781 434.756Z" fill="#D50C2D"/>
<path d="M507.051 337H391.025C387.034 337 385.404 338.574 385.404 342.621V358.136C385.404 362.071 386.978 363.758 391.025 363.758H434.76V456.398C434.76 460.333 436.39 462.02 440.381 462.02H458.932C462.866 462.02 464.553 460.389 464.553 456.398V363.702H507.107C511.042 363.702 512.728 362.071 512.728 358.08V342.621C512.616 338.799 510.986 337 507.051 337Z" fill="#D50C2D"/>
<path d="M359.321 435.487H266.568V412.046H340.714C344.649 412.046 346.335 410.415 346.335 406.424V392.764C346.335 388.829 344.761 387.143 340.714 387.143H266.568V363.758H359.321C363.256 363.758 364.942 362.128 364.942 358.136V342.621C364.942 338.686 363.312 337 359.321 337H243.632C239.697 337 238.011 338.63 238.011 342.621V456.398C238.011 460.333 239.641 462.02 243.632 462.02H359.321C363.256 462.02 364.942 460.389 364.942 456.398V441.052C364.886 437.117 363.256 435.487 359.321 435.487Z" fill="#D50C2D"/>
<path d="M211.591 337H194.108C190.173 337 188.487 338.63 188.487 342.621V386.862H118.838V342.621C118.838 338.686 117.208 337 113.216 337H95.6214C91.6302 337 90 338.63 90 342.621V456.454C90 460.446 91.6302 462.076 95.6214 462.076H113.216C117.151 462.076 118.838 460.502 118.838 456.454V411.483H188.543V456.454C188.543 460.389 190.173 462.076 194.164 462.076H211.647C215.582 462.076 217.268 460.446 217.268 456.454V342.621C217.156 338.799 215.526 337 211.591 337Z" fill="#D50C2D"/>
</svg>
