<?xml version="1.0" encoding="iso-8859-1"?>
<!-- Generator: Adobe Illustrator 19.0.0, SVG Export Plug-In . SVG Version: 6.00 Build 0)  -->
<svg version="1.1" id="Capa_1" xmlns="http://www.w3.org/2000/svg" xmlns:xlink="http://www.w3.org/1999/xlink" x="0px" y="0px"
	 viewBox="0 0 512 512" style="enable-background:new 0 0 512 512;" xml:space="preserve">
<g>
	<g>
		<g>
			<path d="M512,352c0-17.643-14.357-32-32-32H160c-17.643,0-32,14.357-32,32v42.667c0,8.213,3.2,15.659,8.32,21.333
				c-5.12,5.675-8.32,13.12-8.32,21.333V480c0,17.643,14.357,32,32,32h320c17.643,0,32-14.357,32-32v-42.667
				c0-8.213-3.2-15.659-8.32-21.333c5.12-5.675,8.32-13.12,8.32-21.333V352z M490.667,480c0,5.888-4.779,10.667-10.667,10.667H160
				c-5.888,0-10.667-4.779-10.667-10.667v-42.667c0-5.888,4.779-10.667,10.667-10.667h320c5.888,0,10.667,4.779,10.667,10.667V480z
				 M490.667,394.667c0,5.888-4.779,10.667-10.667,10.667H160c-5.888,0-10.667-4.779-10.667-10.667V352
				c0-5.888,4.779-10.667,10.667-10.667h320c5.888,0,10.667,4.779,10.667,10.667V394.667z"/>
			<path d="M99.605,475.456C51.328,461.077,21.333,438.293,21.333,416v-64.107c15.851,14.848,39.957,27.648,71.595,37.141
				c1.024,0.299,2.069,0.448,3.072,0.448c4.587,0,8.832-2.965,10.219-7.595c1.707-5.653-1.493-11.584-7.147-13.291
				c-47.957-14.379-77.739-37.077-77.739-59.264v-64.384c34.197,32.043,106.347,53.717,192,53.717s157.803-21.675,192-53.717V288
				c0,5.888,4.779,10.667,10.667,10.667c5.888,0,10.667-4.779,10.667-10.667V96c0-53.824-93.717-96-213.333-96S0,42.176,0,96v320
				c0,33.088,34.091,62.187,93.525,79.893c1.024,0.299,2.048,0.448,3.051,0.448c4.608,0,8.832-2.987,10.197-7.616
				C108.48,483.072,105.259,477.141,99.605,475.456z M213.333,21.333c113.152,0,192,39.36,192,74.667
				c0,35.307-78.848,74.667-192,74.667s-192-39.36-192-74.667C21.333,60.693,100.181,21.333,213.333,21.333z M21.333,138.283
				C55.531,170.325,127.68,192,213.333,192s157.803-21.675,192-53.717v64.384c0,35.307-78.848,74.667-192,74.667
				s-192-39.36-192-74.667V138.283z"/>
			<path d="M458.667,448h-85.333c-5.888,0-10.667,4.779-10.667,10.667s4.779,10.667,10.667,10.667h85.333
				c5.888,0,10.667-4.779,10.667-10.667S464.555,448,458.667,448z"/>
			<path d="M181.333,362.667c-5.888,0-10.667,4.779-10.667,10.667c0,5.888,4.779,10.667,10.667,10.667S192,379.221,192,373.333
				C192,367.445,187.221,362.667,181.333,362.667z"/>
			<path d="M181.333,448c-5.888,0-10.667,4.779-10.667,10.667s4.779,10.667,10.667,10.667S192,464.555,192,458.667
				S187.221,448,181.333,448z"/>
			<path d="M458.667,362.667h-85.333c-5.888,0-10.667,4.779-10.667,10.667c0,5.888,4.779,10.667,10.667,10.667h85.333
				c5.888,0,10.667-4.779,10.667-10.667C469.333,367.445,464.555,362.667,458.667,362.667z"/>
		</g>
	</g>
</g>
<g>
</g>
<g>
</g>
<g>
</g>
<g>
</g>
<g>
</g>
<g>
</g>
<g>
</g>
<g>
</g>
<g>
</g>
<g>
</g>
<g>
</g>
<g>
</g>
<g>
</g>
<g>
</g>
<g>
</g>
</svg>
