<?xml version="1.0" encoding="UTF-8"?>
<svg xmlns="http://www.w3.org/2000/svg" id="Layer_1" data-name="Layer 1" viewBox="0 0 64 64" width="512" height="512"><path d="M45.51,13.4h-27a5.1,5.1,0,0,0-5.09,5.09v27a5.1,5.1,0,0,0,5.09,5.09h27a5.1,5.1,0,0,0,5.09-5.09v-27A5.1,5.1,0,0,0,45.51,13.4Zm3.15,32.11a3.16,3.16,0,0,1-3.15,3.15h-27a3.16,3.16,0,0,1-3.15-3.15v-27a3.16,3.16,0,0,1,3.15-3.15h27a3.16,3.16,0,0,1,3.15,3.15Z"/><path d="M63,24.74a1,1,0,0,0,0-1.94H56.45V16.5H63a1,1,0,0,0,0-1.94H56.45V14A6.45,6.45,0,0,0,50,7.55h-.57V1A1,1,0,1,0,47.5,1V7.55H41.2V1a1,1,0,0,0-1.94,0V7.55H33V1A1,1,0,1,0,31,1V7.55H24.74V1A1,1,0,1,0,22.8,1V7.55H16.5V1a1,1,0,0,0-1.94,0V7.55H14A6.45,6.45,0,0,0,7.55,14v.56H1A1,1,0,0,0,1,16.5H7.55v6.3H1a1,1,0,1,0,0,1.94H7.55V31H1A1,1,0,1,0,1,33H7.55v6.29H1A1,1,0,0,0,1,41.2H7.55v6.3H1a1,1,0,1,0,0,1.94H7.55V50A6.45,6.45,0,0,0,14,56.45h.56V63a1,1,0,0,0,1.94,0V56.45h6.3V63a1,1,0,0,0,1.94,0V56.45H31V63A1,1,0,0,0,33,63V56.45h6.29V63a1,1,0,0,0,1.94,0V56.45h6.3V63a1,1,0,1,0,1.93,0V56.45H50A6.45,6.45,0,0,0,56.45,50v-.56H63a1,1,0,0,0,0-1.94H56.45V41.2H63a1,1,0,0,0,0-1.94H56.45V33H63A1,1,0,0,0,63,31H56.45V24.74ZM54.51,50A4.51,4.51,0,0,1,50,54.51H14A4.51,4.51,0,0,1,9.49,50V14A4.51,4.51,0,0,1,14,9.49H50A4.51,4.51,0,0,1,54.51,14Z"/></svg>
