<?xml version="1.0" encoding="UTF-8"?>
<svg xmlns="http://www.w3.org/2000/svg" xmlns:xlink="http://www.w3.org/1999/xlink" version="1.1" id="Capa_1" x="0px" y="0px" viewBox="0 0 512 512" style="enable-background:new 0 0 512 512;" xml:space="preserve" width="512" height="512">
<g>
	<path d="M192.782,460.907c0.37,0.055,0.738,0.081,1.103,0.081c3.658,0,6.861-2.681,7.41-6.408c0.604-4.098-2.229-7.909-6.327-8.513&#10;&#9;&#9;c-36.797-5.419-68.865-15.8-90.298-29.231c-3.507-2.199-8.138-1.138-10.338,2.372c-2.199,3.51-1.137,8.139,2.373,10.338&#10;&#9;&#9;C119.857,444.055,153.979,455.193,192.782,460.907z"/>
	<circle cx="395.781" cy="426.844" r="7.5"/>
	<circle cx="349.188" cy="442.375" r="7.5"/>
	<path d="M194.968,321.817c-36.797-5.419-68.865-15.8-90.298-29.231c-3.507-2.199-8.138-1.138-10.338,2.372&#10;&#9;&#9;c-2.199,3.51-1.137,8.139,2.373,10.338c23.152,14.509,57.273,25.647,96.077,31.361c0.37,0.055,0.738,0.081,1.103,0.081&#10;&#9;&#9;c3.658,0,6.861-2.681,7.41-6.408C201.898,326.232,199.065,322.421,194.968,321.817z"/>
	<circle cx="395.781" cy="302.594" r="7.5"/>
	<circle cx="349.188" cy="318.125" r="7.5"/>
	<path d="M449.875,85.156c0-23.967-21.025-45.927-59.203-61.834C354.577,8.283,306.75,0,256,0&#10;&#9;&#9;c-57.938,0-112.179,10.896-148.814,29.893c-3.678,1.907-5.112,6.434-3.206,10.111c1.907,3.678,6.437,5.111,10.11,3.206&#10;&#9;&#9;C148.662,25.282,200.387,15,256,15c106.999,0,178.875,36.275,178.875,70.156S362.999,155.312,256,155.312&#10;&#9;&#9;S77.125,119.037,77.125,85.156c0-7.602,3.438-15.21,10.218-22.613c2.797-3.055,2.589-7.799-0.466-10.596&#10;&#9;&#9;c-3.055-2.798-7.799-2.589-10.597,0.465c-9.393,10.256-14.155,21.273-14.155,32.744v93.188c0,5.292,1.026,10.485,3.034,15.537&#10;&#9;&#9;c-2.015,5.081-3.034,10.288-3.034,15.525v93.188c0,5.292,1.026,10.485,3.034,15.537c-2.015,5.081-3.034,10.288-3.034,15.525v42.656&#10;&#9;&#9;c0,4.142,3.357,7.5,7.5,7.5s7.5-3.358,7.5-7.5v-9.017C113.91,406.139,198.608,418.812,256,418.812&#10;&#9;&#9;c56.55,0,141.846-12.417,178.875-51.517v59.548C434.875,460.725,362.999,497,256,497S77.125,460.725,77.125,426.844v-15.531&#10;&#9;&#9;c0-4.142-3.357-7.5-7.5-7.5s-7.5,3.358-7.5,7.5v15.531c0,23.967,21.025,45.927,59.203,61.834C157.423,503.717,205.25,512,256,512&#10;&#9;&#9;s98.577-8.283,134.672-23.322c38.178-15.908,59.203-37.868,59.203-61.834v-93.188c0-5.237-1.019-10.445-3.034-15.525&#10;&#9;&#9;c2.008-5.052,3.034-10.246,3.034-15.537v-93.188c0-5.257-1.026-10.484-3.056-15.582c2.021-5.052,3.056-10.231,3.056-15.48V85.156z&#10;&#9;&#9; M256,170.312c56.55,0,141.846-12.417,178.875-51.517v59.548c0,15.408-14.267,30.879-40.173,43.563&#10;&#9;&#9;c-3.721,1.821-5.26,6.314-3.438,10.034c1.303,2.659,3.969,4.203,6.742,4.203c1.106,0,2.23-0.246,3.292-0.766&#10;&#9;&#9;c14.087-6.897,25.327-14.789,33.432-23.336c-3.603,33.099-74.503,67.519-178.73,67.519c-104.118,0-174.979-34.348-178.719-67.415&#10;&#9;&#9;C114.109,250.803,198.494,263.5,256,263.5c39.928,0,78.183-5.124,110.628-14.817c3.969-1.186,6.226-5.364,5.04-9.333&#10;&#9;&#9;c-1.186-3.969-5.366-6.226-9.333-5.039C331.264,243.594,294.493,248.5,256,248.5c-106.999,0-178.875-36.275-178.875-70.156v-59.548&#10;&#9;&#9;C113.91,157.639,198.608,170.312,256,170.312z M256,403.812c-104.118,0-174.979-34.348-178.719-67.415&#10;&#9;&#9;C114.109,375.053,198.494,387.75,256,387.75c56.168,0,141.492-12.278,178.719-51.353C430.979,369.464,360.118,403.812,256,403.812z&#10;&#9;&#9; M434.875,302.594c0,33.881-71.876,70.156-178.875,70.156S77.125,336.475,77.125,302.594v-59.548&#10;&#9;&#9;C113.91,281.889,198.608,294.562,256,294.562c56.55,0,141.846-12.417,178.875-51.517V302.594z"/>
	<path d="M96.705,181.046c23.152,14.509,57.273,25.647,96.077,31.361c0.37,0.055,0.738,0.081,1.103,0.081&#10;&#9;&#9;c3.658,0,6.861-2.681,7.41-6.408c0.604-4.098-2.229-7.909-6.327-8.513c-36.797-5.419-68.865-15.8-90.298-29.231&#10;&#9;&#9;c-3.507-2.199-8.138-1.138-10.338,2.372C92.133,174.218,93.195,178.847,96.705,181.046z"/>
	<circle cx="395.781" cy="178.344" r="7.5"/>
	<circle cx="349.188" cy="193.875" r="7.5"/>
</g>















</svg>
