<svg height="512" viewBox="0 0 42.05 42.09" width="512" xmlns="http://www.w3.org/2000/svg"><g id="Layer_2" data-name="Layer 2"><g id="Layer_1-2" data-name="Layer 1"><g id="Information"><path id="_6" d="m20.12 42.09h-15.12a5 5 0 0 1 -5-5v-32.09a5 5 0 0 1 5-5h23.15a5 5 0 0 1 5 5v12a1.13 1.13 0 1 1 -2.25 0v-12a2.71 2.71 0 0 0 -2.72-2.71h-23.18a2.71 2.71 0 0 0 -2.74 2.71v32.12a2.71 2.71 0 0 0 2.74 2.71h15.12a1.13 1.13 0 0 1 0 2.26z" data-name="6"/><path id="_5" d="m26.05 12.08h-19a1.13 1.13 0 1 1 0-2.25h19a1.13 1.13 0 0 1 0 2.25z" data-name="5"/><path id="_4" d="m17.53 20.86h-10.45a1.13 1.13 0 0 1 0-2.26h10.45a1.13 1.13 0 0 1 0 2.26z" data-name="4"/><path id="_3" d="m31.46 42.09a10.59 10.59 0 1 1 10.59-10.59 10.6 10.6 0 0 1 -10.59 10.59zm0-18.74a8.16 8.16 0 1 0 8.16 8.15 8.15 8.15 0 0 0 -8.16-8.15z" data-name="3"/><path id="_2" d="m31.46 34.8a1.21 1.21 0 0 1 -1.21-1.22v-6.76a1.22 1.22 0 1 1 2.43 0v6.76a1.22 1.22 0 0 1 -1.22 1.22z" data-name="2"/><path id="_1" d="m31.43 37.92a1.19 1.19 0 0 1 -.84-.34 1.22 1.22 0 0 1 0-1.72 1.25 1.25 0 0 1 1.75 0 1.17 1.17 0 0 1 0 1.68l-.06.06a1.19 1.19 0 0 1 -.85.32z" data-name="1"/></g></g></g></svg>