<svg id="Capa_1" enable-background="new 0 0 480 480" height="512" viewBox="0 0 480 480" width="512" xmlns="http://www.w3.org/2000/svg"><g><g><g><path d="m112 432.08h-96c-8.848 0-16-7.168-16-16v-64c0-8.832 7.152-16 16-16h96c8.848 0 16 7.168 16 16v64c0 8.848-7.152 16-16 16zm-80-32h64v-32h-64z"/></g></g><g><g><path d="m288 432.08h-96c-8.848 0-16-7.168-16-16v-64c0-8.832 7.152-16 16-16h96c8.848 0 16 7.168 16 16v64c0 8.848-7.152 16-16 16zm-80-32h64v-32h-64z"/></g></g><g><g><path d="m288 143.92h-96c-8.848 0-16-7.168-16-16v-64c0-8.832 7.152-16 16-16h96c8.848 0 16 7.168 16 16v64c0 8.832-7.152 16-16 16zm-80-32h64v-32h-64z"/></g></g><g><g><path d="m464 432.08h-96c-8.848 0-16-7.168-16-16v-64c0-8.832 7.152-16 16-16h96c8.848 0 16 7.168 16 16v64c0 8.848-7.152 16-16 16zm-80-32h64v-32h-64z"/></g></g><g><g><path d="m240 368.08c-8.848 0-16-7.168-16-16v-96.16h-144v96.16c0 8.832-7.152 16-16 16s-16-7.168-16-16v-112.16c0-8.832 7.152-16 16-16h176c8.848 0 16 7.168 16 16v112.16c0 8.848-7.152 16-16 16z"/></g></g><g><g><path d="m416 368.256c-8.848 0-16-7.168-16-16v-96.336h-160c-8.848 0-16-7.168-16-16v-112c0-8.832 7.152-16 16-16s16 7.168 16 16v96h160c8.848 0 16 7.168 16 16v112.336c0 8.832-7.152 16-16 16z"/></g></g></g></svg>