<?xml version="1.0" encoding="UTF-8"?>
<svg xmlns="http://www.w3.org/2000/svg" id="Layer_1" data-name="Layer 1" viewBox="0 0 512 512" width="512" height="512"><path d="M416,21.333H96a32.035,32.035,0,0,0-32,32V458.667a32.035,32.035,0,0,0,32,32H416a32.035,32.035,0,0,0,32-32V53.333A32.035,32.035,0,0,0,416,21.333Zm-277.333,448v-32H160v32Zm42.666,0v-32h21.334v32Zm42.667,0v-32h21.333v32Zm42.667,0v-32H288v32Zm42.666,0v-32h21.334v32Zm42.667,0v-32h21.333v32Zm74.667-10.666A10.681,10.681,0,0,1,416,469.333H394.667v-32A21.355,21.355,0,0,0,373.333,416H138.667a21.355,21.355,0,0,0-21.334,21.333v32H96a10.681,10.681,0,0,1-10.667-10.666V53.333A10.679,10.679,0,0,1,96,42.667H416a10.679,10.679,0,0,1,10.667,10.666Z"/><circle cx="117.333" cy="74.667" r="10.667"/><circle cx="394.667" cy="74.667" r="10.667"/><circle cx="117.333" cy="384" r="10.667"/><circle cx="394.667" cy="384" r="10.667"/><path d="M202.667,213.333a10.667,10.667,0,0,0,0-21.333H181.333A21.356,21.356,0,0,0,160,213.333V224a21.356,21.356,0,0,0,21.333,21.333H192V256H170.667a10.667,10.667,0,1,0,0,21.333H192A21.353,21.353,0,0,0,213.333,256V245.333A21.355,21.355,0,0,0,192,224H181.333V213.333Z"/><path d="M266.667,213.333a10.667,10.667,0,0,0,0-21.333H245.333A21.356,21.356,0,0,0,224,213.333V224a21.356,21.356,0,0,0,21.333,21.333H256V256H234.667a10.667,10.667,0,1,0,0,21.333H256A21.353,21.353,0,0,0,277.333,256V245.333A21.355,21.355,0,0,0,256,224H245.333V213.333Z"/><path d="M320,192H298.667A10.667,10.667,0,0,0,288,202.667v64a10.667,10.667,0,0,0,10.667,10.666H320a32.035,32.035,0,0,0,32-32V224A32.035,32.035,0,0,0,320,192Zm10.667,53.333A10.679,10.679,0,0,1,320,256H309.333V213.333H320A10.679,10.679,0,0,1,330.667,224Z"/><path d="M394.667,298.667v-128a21.357,21.357,0,0,0-21.334-21.334H138.667a21.357,21.357,0,0,0-21.334,21.334v128A21.355,21.355,0,0,0,138.667,320H373.333A21.355,21.355,0,0,0,394.667,298.667Zm-256,0v-128H373.333l.016,128Z"/></svg>
