<?xml version="1.0" encoding="iso-8859-1"?>
<!-- Generator: Adobe Illustrator 19.0.0, SVG Export Plug-In . SVG Version: 6.00 Build 0)  -->
<svg version="1.1" id="Capa_1" xmlns="http://www.w3.org/2000/svg" x="0px"
	 y="0px"
	 viewBox="0 0 480 480" style="enable-background:new 0 0 480 480;" xml:space="preserve">
<g>
	<g>
		<g>
			<path d="M152,280h80V136h-80V280z M168,152h48v112h-48V152z"/>
            <path d="M248,280h80V136h-80V280z M264,152h48v112h-48V152z"/>
            <path d="M56,280h80V136H56V280z M72,152h48v112H72V152z"/>
            <path d="M344,280h80V136h-80V280z M360,152h48v112h-48V152z"/>
            <path d="M472,184c4.418,0,8-3.582,8-8v-64c0-13.255-10.745-24-24-24H24C10.745,88,0,98.745,0,112v64c0,4.418,3.582,8,8,8
				s8,3.582,8,8s-3.582,8-8,8s-8,3.582-8,8v112c0,4.418,3.582,8,8,8h32v56c0,4.418,3.582,8,8,8h128c4.418,0,8-3.582,8-8v-16
				c0-4.418,3.582-8,8-8c2.158-0.007,4.223,0.879,5.704,2.448c1.484,1.465,2.312,3.467,2.296,5.552v16c0,4.418,3.582,8,8,8h224
				c4.418,0,8-3.582,8-8v-56h32c4.418,0,8-3.582,8-8V208c0-4.418-3.582-8-8-8s-8-3.582-8-8S467.582,184,472,184z M424,376h-16v-32
				h-16v32h-16v-32h-16v32h-16v-32h-16v32h-16v-32h-16v32h-16v-32h-16v32h-16v-32h-16v32h-16v-8c-0.057-13.231-10.769-23.943-24-24
				c-13.255,0-24,10.745-24,24v8h-16v-32h-16v32h-16v-32h-16v32H88v-32H72v32H56v-48h368V376z M464,169.368
				c-12.499,4.411-19.056,18.12-14.645,30.619c2.416,6.845,7.8,12.229,14.645,14.645V312H16v-97.368
				c12.499-4.411,19.056-18.12,14.645-30.619c-2.416-6.845-7.8-12.229-14.645-14.645V112c0-4.418,3.582-8,8-8h432
				c4.418,0,8,3.582,8,8V169.368z"/>
		</g>
	</g>
</g>
    <g>
</g>
    <g>
</g>
    <g>
</g>
    <g>
</g>
    <g>
</g>
    <g>
</g>
    <g>
</g>
    <g>
</g>
    <g>
</g>
    <g>
</g>
    <g>
</g>
    <g>
</g>
    <g>
</g>
    <g>
</g>
    <g>
</g>
</svg>
