<?xml version="1.0" encoding="iso-8859-1"?>
<!-- Generator: Adobe Illustrator 19.0.0, SVG Export Plug-In . SVG Version: 6.00 Build 0)  -->
<svg version="1.1" id="Capa_1" xmlns="http://www.w3.org/2000/svg" xmlns:xlink="http://www.w3.org/1999/xlink" x="0px" y="0px"
	 viewBox="0 0 512 512" style="enable-background:new 0 0 512 512;" xml:space="preserve">
<g>
	<g>
		<path d="M230,192c-5.52,0-10,4.48-10,10s4.48,10,10,10s10-4.48,10-10S235.52,192,230,192z"/>
	</g>
</g>
<g>
	<g>
		<path d="M230,312c-5.52,0-10,4.48-10,10c0,5.52,4.48,10,10,10s10-4.48,10-10C240,316.48,235.52,312,230,312z"/>
	</g>
</g>
<g>
	<g>
		<path d="M230,432c-5.52,0-10,4.48-10,10c0,5.52,4.48,10,10,10s10-4.48,10-10C240,436.48,235.52,432,230,432z"/>
	</g>
</g>
<g>
	<g>
		<path d="M422,172c-16.542,0-30,13.458-30,30s13.458,30,30,30s30-13.458,30-30S438.542,172,422,172z M422,212
			c-5.514,0-10-4.486-10-10c0-5.514,4.486-10,10-10c5.514,0,10,4.486,10,10C432,207.514,427.514,212,422,212z"/>
	</g>
</g>
<g>
	<g>
		<path d="M110,192H70c-5.522,0-10,4.477-10,10s4.478,10,10,10h40c5.522,0,10-4.477,10-10S115.522,192,110,192z"/>
	</g>
</g>
<g>
	<g>
		<path d="M190,192h-40c-5.522,0-10,4.477-10,10s4.478,10,10,10h40c5.522,0,10-4.477,10-10S195.522,192,190,192z"/>
	</g>
</g>
<g>
	<g>
		<path d="M422,292c-16.542,0-30,13.458-30,30s13.458,30,30,30s30-13.458,30-30S438.542,292,422,292z M422,332
			c-5.514,0-10-4.486-10-10c0-5.514,4.486-10,10-10c5.514,0,10,4.486,10,10C432,327.514,427.514,332,422,332z"/>
	</g>
</g>
<g>
	<g>
		<path d="M110,312H70c-5.522,0-10,4.477-10,10s4.478,10,10,10h40c5.522,0,10-4.477,10-10S115.522,312,110,312z"/>
	</g>
</g>
<g>
	<g>
		<path d="M190,312h-40c-5.522,0-10,4.477-10,10s4.478,10,10,10h40c5.522,0,10-4.477,10-10S195.522,312,190,312z"/>
	</g>
</g>
<g>
	<g>
		<path d="M422,412c-16.542,0-30,13.458-30,30s13.458,30,30,30s30-13.458,30-30S438.542,412,422,412z M422,452
			c-5.514,0-10-4.486-10-10c0-5.514,4.486-10,10-10c5.514,0,10,4.486,10,10C432,447.514,427.514,452,422,452z"/>
	</g>
</g>
<g>
	<g>
		<path d="M512,156.16c0-10.48-2.385-21.195-7.279-31.087L456.668,16.997c-0.062-0.138-0.126-0.274-0.193-0.41
			C451.357,6.356,441.075,0,429.64,0H82.36C70.925,0,60.643,6.356,55.525,16.587c-0.067,0.135-0.132,0.272-0.193,0.41L7.279,125.073
			C2.624,134.483,0,145.149,0,156.16V242c0,7.678,2.902,14.688,7.664,20C2.902,267.312,0,274.322,0,282v80
			c0,7.678,2.902,14.688,7.664,20C2.902,387.312,0,394.322,0,402v80c0,16.542,13.458,30,30,30h452c16.542,0,30-13.458,30-30v-80
			c0-7.678-2.902-14.688-7.664-20c4.761-5.312,7.664-12.322,7.664-20v-80c0-7.678-2.902-14.688-7.664-20
			c4.761-5.312,7.664-12.322,7.664-20V156.16z M73.499,25.365C75.233,22.051,78.611,20,82.36,20h347.28
			c3.749,0,7.127,2.051,8.861,5.365L485.913,132H26.087L73.499,25.365z M492,482c0,5.514-4.486,10-10,10H30c-5.514,0-10-4.486-10-10
			v-80c0-5.514,4.486-10,10-10h452c5.514,0,10,4.486,10,10V482z M492,362c0,5.514-4.486,10-10,10H30c-5.514,0-10-4.486-10-10v-80
			c0-5.514,4.486-10,10-10h452c5.514,0,10,4.486,10,10V362z M492,242c0,5.514-4.486,10-10,10H30c-5.514,0-10-4.486-10-10v-85.84
			c0-1.391,0.079-2.778,0.195-4.16h471.61c0.116,1.382,0.195,2.769,0.195,4.16V242z"/>
	</g>
</g>
<g>
	<g>
		<path d="M110,432H70c-5.522,0-10,4.477-10,10s4.478,10,10,10h40c5.522,0,10-4.477,10-10S115.522,432,110,432z"/>
	</g>
</g>
<g>
	<g>
		<path d="M190,432h-40c-5.522,0-10,4.477-10,10s4.478,10,10,10h40c5.522,0,10-4.477,10-10S195.522,432,190,432z"/>
	</g>
</g>
<g>
</g>
<g>
</g>
<g>
</g>
<g>
</g>
<g>
</g>
<g>
</g>
<g>
</g>
<g>
</g>
<g>
</g>
<g>
</g>
<g>
</g>
<g>
</g>
<g>
</g>
<g>
</g>
<g>
</g>
</svg>
