<svg id="Layer_1" enable-background="new 0 0 64 64" height="512" viewBox="0 0 64 64" width="512" xmlns="http://www.w3.org/2000/svg"><g><path d="m54.963 19.44h-16.754v-11.951c0-1.949-.758-3.773-2.129-5.13-1.373-1.373-3.195-2.129-5.131-2.129h-23.04c-4.003 0-7.26 3.257-7.26 7.26v15.36c0 4.003 3.257 7.26 7.26 7.26h.42v4.26c0 1.402.837 2.647 2.131 3.171.417.168.85.25 1.279.25.896 0 1.769-.355 2.408-1.018l4.878-4.851v14.273c0 4.625 3.763 8.388 8.388 8.388h12.191l8.083 8.039c.727.75 1.702 1.149 2.699 1.149.476 0 .956-.091 1.416-.277 1.437-.581 2.364-1.965 2.364-3.523v-5.388h.796c4.625 0 8.388-3.763 8.388-8.388v-18.367c.001-4.625-3.762-8.388-8.387-8.388zm-35.931 8.245-7.021 6.981c-.122.127-.265.16-.426.093-.117-.047-.256-.153-.256-.39v-5.76c0-.829-.671-1.5-1.5-1.5h-1.92c-2.349 0-4.26-1.911-4.26-4.26v-15.36c0-2.349 1.911-4.26 4.26-4.26h23.04c1.134 0 2.203.444 3.015 1.256.803.795 1.245 1.862 1.245 3.004v11.951h-7.796c-2.236 0-4.341.874-5.928 2.46-1.552 1.552-2.416 3.602-2.453 5.785zm41.319 18.509c0 2.971-2.417 5.388-5.388 5.388h-2.296c-.828 0-1.5.672-1.5 1.5v6.888c0 .491-.343.684-.49.743-.143.057-.511.155-.854-.199l-8.541-8.495c-.281-.279-.661-.437-1.058-.437h-12.811c-2.971 0-5.388-2.417-5.388-5.388v-18.366c0-1.436.562-2.787 1.581-3.806 1.02-1.02 2.372-1.582 3.807-1.582h27.55c2.971 0 5.388 2.417 5.388 5.388z"/><path d="m31.902 34.822c-1.22 0-2.213.994-2.213 2.213s.994 2.213 2.213 2.213c1.221 0 2.215-.994 2.215-2.213s-.994-2.213-2.215-2.213z"/><path d="m41.187 34.822c-1.22 0-2.213.994-2.213 2.213s.994 2.213 2.213 2.213c1.221 0 2.215-.994 2.215-2.213s-.993-2.213-2.215-2.213z"/><path d="m50.473 34.822c-1.22 0-2.213.994-2.213 2.213s.994 2.213 2.213 2.213c1.221 0 2.215-.994 2.215-2.213s-.994-2.213-2.215-2.213z"/></g></svg>