<svg width="11" height="14" viewBox="0 0 11 14" fill="none" xmlns="http://www.w3.org/2000/svg">
<path d="M9.85001 11.2H3.55001C3.26807 11.2 3.02258 11.0955 2.81355 10.8865C2.60453 10.6774 2.50001 10.4319 2.50001 10.15V1.75C2.50001 1.46805 2.60453 1.22257 2.81355 1.01354C3.02258 0.804511 3.26807 0.699997 3.55001 0.699997H8.10001L10.9 3.5V10.15C10.9 10.4319 10.7955 10.6774 10.5865 10.8865C10.3774 11.0955 10.132 11.2 9.85001 11.2ZM7.40001 4.2V1.75H3.55001V10.15H9.85001V4.2H7.40001ZM1.45001 13.3C1.16807 13.3 0.922582 13.1955 0.713555 12.9865C0.504527 12.7774 0.400013 12.5319 0.400013 12.25V4.2H1.45001V12.25H8.10001V13.3H1.45001Z" fill="#1C1B1F"/>
</svg>
